# Blender v2.90.1 OBJ File: ''
# www.blender.org
mtllib light_strip_warm.mtl
o light_strip
v -0.476149 -0.479972 -0.088413
v -0.476149 -0.499181 -0.088413
v -0.476149 -0.499181 0.081587
v -0.476149 -0.479972 0.081587
v -0.376109 -0.479972 0.052597
v -0.394634 -0.479972 0.045855
v -0.409736 -0.479972 0.033183
v 0.400813 -0.479972 -0.039790
v 0.410670 -0.479972 -0.022718
v 0.414093 -0.479972 -0.003304
v 0.476625 -0.479972 -0.003931
v 0.400813 -0.479972 0.033183
v 0.476625 -0.479972 0.081587
v 0.367186 -0.479972 0.052597
v 0.370668 -0.479972 0.081587
v -0.378168 -0.479972 0.081587
v -0.419593 -0.479972 0.016111
v -0.476149 -0.479972 -0.003656
v -0.423016 -0.479972 -0.003304
v -0.409736 -0.479972 -0.039790
v -0.376109 -0.479972 -0.059205
v -0.394634 -0.479972 -0.052462
v 0.385711 -0.479972 0.045855
v -0.419593 -0.479972 -0.022718
v 0.410670 -0.479972 0.016111
v -0.374640 -0.479972 -0.088413
v 0.367186 -0.479972 -0.059205
v 0.368244 -0.479972 -0.088413
v 0.476625 -0.479972 -0.088413
v 0.385711 -0.479972 -0.052462
v 0.476625 -0.499181 -0.088413
v 0.476625 -0.499181 0.081587
v -0.394634 -0.488777 -0.052462
v -0.409736 -0.488777 -0.039790
v -0.419593 -0.488777 -0.022718
v -0.419593 -0.488777 0.016111
v -0.394634 -0.488777 0.045855
v -0.409736 -0.488777 0.033183
v -0.423016 -0.488777 -0.003304
v 0.367186 -0.488777 -0.059205
v -0.376109 -0.488777 -0.059205
v 0.400813 -0.488777 -0.039790
v 0.400813 -0.488777 0.033183
v 0.367186 -0.488777 0.052597
v 0.385711 -0.488777 0.045855
v 0.385711 -0.488777 -0.052462
v -0.376109 -0.488777 0.052597
v 0.414093 -0.488777 -0.003304
v 0.410670 -0.488777 -0.022718
v 0.410670 -0.488777 0.016111
vt 0.516522 0.827581
vt 0.516522 0.838488
vt 0.468258 0.838488
vt 0.468258 0.827581
vt 0.107033 0.173228
vt 0.087686 0.189527
vt 0.071914 0.220161
vt 0.918426 0.396573
vt 0.928720 0.355301
vt 0.932295 0.308368
vt 0.989610 0.309765
vt 0.918426 0.220161
vt 0.989610 0.119297
vt 0.883307 0.173228
vt 0.880712 0.119297
vt 0.111090 0.119297
vt 0.010390 0.119297
vt 0.061620 0.261433
vt 0.010390 0.309152
vt 0.058045 0.308368
vt 0.010390 0.497925
vt 0.071914 0.396573
vt 0.107033 0.443508
vt 0.087686 0.427207
vt 0.902654 0.189527
vt 0.061620 0.355301
vt 0.928720 0.261433
vt 0.114716 0.497925
vt 0.883307 0.443508
vt 0.878221 0.497925
vt 0.989610 0.497925
vt 0.902654 0.427207
vt 0.468258 0.867384
vt 0.468258 0.856477
vt 0.738757 0.856477
vt 0.738758 0.867384
vt 0.468258 0.852936
vt 0.516522 0.842029
vt 0.516522 0.852936
vt 0.468258 0.842029
vt 0.010390 0.572206
vt 0.989610 0.950834
vt 0.010390 0.950834
vt 0.989610 0.572206
vt 0.738758 0.871021
vt 0.738758 0.881928
vt 0.468258 0.881928
vt 0.468258 0.871021
vt 0.094167 0.417854
vt 0.078646 0.389631
vt 0.068515 0.351608
vt 0.068515 0.265126
vt 0.094167 0.198880
vt 0.078646 0.227103
vt 0.064997 0.308368
vt 0.877134 0.432872
vt 0.113206 0.432872
vt 0.911694 0.389631
vt 0.911694 0.227103
vt 0.877134 0.183864
vt 0.896173 0.198880
vt 0.896173 0.417854
vt 0.113206 0.183864
vt 0.925343 0.308368
vt 0.921825 0.351608
vt 0.921825 0.265126
vn -1.0000 0.0000 0.0000
vn 0.0000 1.0000 -0.0000
vn -0.0000 0.0000 -1.0000
vn 1.0000 0.0000 0.0000
vn 0.0000 -1.0000 0.0000
vn 0.0000 0.0000 1.0000
vn -0.9397 0.0000 -0.3420
vn -0.7660 0.0000 -0.6428
vn -0.5000 0.0000 -0.8660
vn -0.1736 0.0000 -0.9848
vn 0.1736 0.0000 -0.9848
vn 0.5000 0.0000 -0.8660
vn 0.7660 0.0000 -0.6428
vn 0.9397 0.0000 -0.3420
vn 0.9397 0.0000 0.3420
vn 0.7660 0.0000 0.6428
vn 0.5000 0.0000 0.8660
vn 0.1737 0.0000 0.9848
vn -0.1737 0.0000 0.9848
vn -0.5000 0.0000 0.8660
vn -0.7660 0.0000 0.6428
vn -0.9397 0.0000 0.3420
usemtl light_strip
s 1
f 1/1/1 2/2/1 3/3/1
f 3/3/1 4/4/1 1/1/1
f 5/5/2 6/6/2 7/7/2
f 8/8/2 9/9/2 10/10/2
f 8/8/2 10/10/2 11/11/2
f 10/10/2 12/12/2 11/11/2
f 12/12/2 13/13/2 11/11/2
f 12/12/2 14/14/2 13/13/2
f 14/14/2 15/15/2 13/13/2
f 14/14/2 5/5/2 15/15/2
f 5/5/2 16/16/2 15/15/2
f 5/5/2 4/17/2 16/16/2
f 5/5/2 7/7/2 4/17/2
f 7/7/2 17/18/2 4/17/2
f 18/19/2 4/17/2 17/18/2
f 18/19/2 17/18/2 19/20/2
f 1/21/2 18/19/2 19/20/2
f 19/20/2 20/22/2 1/21/2
f 20/22/2 21/23/2 1/21/2
f 20/22/2 22/24/2 21/23/2
f 12/12/2 23/25/2 14/14/2
f 19/20/2 24/26/2 20/22/2
f 10/10/2 25/27/2 12/12/2
f 26/28/2 1/21/2 21/23/2
f 26/28/2 21/23/2 27/29/2
f 27/29/2 28/30/2 26/28/2
f 27/29/2 29/31/2 28/30/2
f 27/29/2 8/8/2 29/31/2
f 8/8/2 11/11/2 29/31/2
f 27/29/2 30/32/2 8/8/2
f 29/33/3 31/34/3 2/35/3
f 2/35/3 1/36/3 29/33/3
f 31/37/4 13/38/4 32/39/4
f 31/37/4 29/40/4 13/38/4
f 2/41/5 32/42/5 3/43/5
f 2/41/5 31/44/5 32/42/5
f 4/45/6 3/46/6 32/47/6
f 32/47/6 13/48/6 4/45/6
f 33/49/2 34/50/2 35/51/2
f 33/49/2 35/51/2 36/52/2
f 36/52/2 37/53/2 33/49/2
f 36/52/2 38/54/2 37/53/2
f 39/55/2 36/52/2 35/51/2
f 40/56/2 41/57/2 33/49/2
f 42/58/2 40/56/2 33/49/2
f 37/53/2 42/58/2 33/49/2
f 37/53/2 43/59/2 42/58/2
f 37/53/2 44/60/2 43/59/2
f 44/60/2 45/61/2 43/59/2
f 42/58/2 46/62/2 40/56/2
f 37/53/2 47/63/2 44/60/2
f 48/64/2 49/65/2 42/58/2
f 43/59/2 48/64/2 42/58/2
f 43/59/2 50/66/2 48/64/2
f 48/64/1 50/66/7 25/27/7
f 50/66/7 12/12/8 25/27/7
f 50/66/7 43/59/8 12/12/8
f 43/59/8 23/25/9 12/12/8
f 43/59/8 45/61/9 23/25/9
f 45/61/9 14/14/10 23/25/9
f 45/61/9 44/60/10 14/14/10
f 44/60/10 5/5/11 14/14/10
f 44/60/10 47/63/11 5/5/11
f 47/63/11 6/6/12 5/5/11
f 47/63/11 37/53/12 6/6/12
f 37/53/12 7/7/13 6/6/12
f 37/53/12 38/54/13 7/7/13
f 38/54/13 17/18/14 7/7/13
f 38/54/13 36/52/14 17/18/14
f 39/55/4 17/18/14 36/52/14
f 39/55/4 19/20/4 17/18/14
f 35/51/15 19/20/4 39/55/4
f 35/51/15 24/26/15 19/20/4
f 35/51/15 20/22/16 24/26/15
f 35/51/15 34/50/16 20/22/16
f 34/50/16 22/24/17 20/22/16
f 34/50/16 33/49/17 22/24/17
f 33/49/17 21/23/18 22/24/17
f 33/49/17 41/57/18 21/23/18
f 41/57/18 27/29/19 21/23/18
f 41/57/18 40/56/19 27/29/19
f 40/56/19 30/32/20 27/29/19
f 40/56/19 46/62/20 30/32/20
f 46/62/20 8/8/21 30/32/20
f 46/62/20 42/58/21 8/8/21
f 42/58/21 9/9/22 8/8/21
f 42/58/21 49/65/22 9/9/22
f 49/65/22 10/10/1 9/9/22
f 49/65/22 48/64/1 10/10/1
f 48/64/1 25/27/7 10/10/1
