# Blender v2.90.1 OBJ File: ''
# www.blender.org
mtllib exit_door.mtl
o Cube.001
v 0.000000 -0.500000 -0.500000
v -0.500000 -0.500000 -0.000000
v -0.500000 -0.250000 0.000000
v 0.000000 -0.250000 -0.500000
v 0.250000 -0.500000 -0.000000
v -0.250000 -0.500000 -0.000000
v -0.250000 -0.250000 0.000000
v -0.250000 -0.500000 0.500000
v -0.250000 -0.250000 0.500000
v 0.250000 -0.250000 0.000000
v 0.500000 -0.500000 -0.000000
v 0.500000 -0.250000 0.000000
v 0.250000 -0.500000 0.500000
v 0.250000 -0.250000 0.500000
v 0.250000 -0.500000 0.375000
v 0.250000 -0.375000 0.375000
v 0.250000 -0.375000 0.125000
v 0.500000 -0.375000 0.375000
v 0.500000 -0.375000 0.125000
v 0.250000 -0.500000 0.125000
v 0.500000 -0.500000 0.125000
v 0.500000 -0.500000 0.375000
vt 0.000100 0.999900
vt 0.999900 0.000100
vt 0.000100 0.000100
vt 0.000100 0.999900
vt 0.000100 0.000100
vt 0.999900 0.000100
vt 0.999900 0.999900
vt 0.000100 0.000100
vt 0.999900 0.000100
vt 0.999900 0.000100
vt 0.000100 0.000100
vt 0.999900 0.000100
vt 0.999900 0.999900
vt 0.000100 0.000100
vt 0.999900 0.000100
vt 0.999900 0.999900
vt 0.999900 0.999900
vt 0.999900 0.000100
vt 0.999900 0.999900
vt 0.000100 0.999900
vt 0.999900 0.999900
vt 0.000100 0.999900
vt 0.999900 0.000100
vt 0.999900 0.999900
vt 0.999900 0.999900
vt 0.999900 0.999900
vt 0.999900 0.999900
vt 0.999900 0.999900
vt 0.999900 0.999900
vt 0.999900 0.999900
vt 0.999900 0.999900
vt 0.999900 0.000100
vt 0.999900 0.000100
vt 0.999900 0.000100
vt 0.000100 0.999900
vn -0.0000 -0.5774 -0.8165
vn -0.7735 -0.5469 0.3204
vn -0.7735 0.5469 0.3204
vn -0.0000 0.5774 -0.8165
vn 0.2255 -0.9623 0.1523
vn -0.4113 -0.8968 0.1632
vn -0.3015 0.9045 0.3015
vn -0.7066 0.0387 0.7066
vn -0.5774 0.5774 0.5774
vn 0.3015 0.9045 0.3015
vn 0.7735 -0.5469 0.3204
vn 0.7735 0.5469 0.3204
vn 0.7068 0.0270 0.7068
vn 0.5774 0.5774 0.5774
vn 0.7046 -0.0841 0.7046
vn 0.9045 0.3015 0.3015
vn 0.9762 -0.2056 -0.0685
vn 0.7068 -0.7068 0.0270
vn -0.0270 -0.7068 0.7068
vn 0.9045 0.3015 -0.3015
vn 0.5774 0.5774 -0.5774
usemtl Material.001
s 1
f 1/1/1 2/2/2 3/3/3 4/4/4
f 1/5/1 5/6/5 6/7/6
f 7/8/7 6/9/6 8/10/8 9/11/9
f 1/1/1 6/9/6 2/2/2
f 7/12/7 10/13/10 4/14/4
f 10/15/10 5/16/5 11/17/11 12/18/12
f 7/8/7 3/3/3 2/2/2 6/9/6
f 7/8/7 4/4/4 3/3/3
f 5/16/5 1/5/1 11/17/11
f 4/14/4 12/18/12 11/17/11 1/5/1
f 10/15/10 12/18/12 4/14/4
f 8/10/8 13/19/13 14/20/14 9/11/9
f 14/20/14 13/19/13 15/21/15 16/22/16
f 10/13/10 7/12/7 9/23/9 14/24/14
f 15/21/15 20/25/17 21/26/18 22/27/19
f 17/28/20 16/29/16 18/30/14 19/31/21
f 5/16/5 10/15/10 17/32/20 20/25/17
f 10/13/10 14/24/14 16/29/16 17/28/20
f 21/26/18 19/33/21 18/34/14 22/27/19
f 20/25/17 17/32/20 19/33/21 21/26/18
f 16/22/16 15/21/15 22/27/19 18/35/14
f 8/10/8 6/9/6 20/25/17 15/21/15
f 6/9/6 5/16/5 20/25/17
f 13/19/13 8/10/8 15/21/15
