# Blender 4.0.2
# www.blender.org
mtllib observation_2x1.mtl
o observation_window_model
v 0.000343 -0.492187 -0.500000
v 1.000343 -0.538657 -0.500000
v 0.000343 -0.538657 -0.500000
v 1.000343 -0.492187 -0.500000
v 0.000343 -0.538657 0.500000
v 0.000343 -0.538657 0.433738
v 0.929350 -0.538657 0.433738
v -0.928663 -0.538657 0.433738
v -0.999657 -0.538657 0.500000
v -0.928663 -0.538657 -0.433738
v -0.999657 -0.538657 -0.500000
v 0.000343 -0.538657 -0.425821
v 0.929350 -0.538657 -0.433738
v 1.000343 -0.538657 0.500000
v 0.000343 -0.492188 0.500000
v -0.999657 -0.492188 0.500000
v -0.999657 -0.492187 -0.500000
v 1.000343 -0.492188 0.500000
vn -0.0000 -0.0000 -1.0000
vn -0.0000 -1.0000 -0.0000
vn -0.0000 -0.0000 1.0000
vn -1.0000 -0.0000 -0.0000
vn 1.0000 -0.0000 -0.0000
vn -0.0000 1.0000 -0.0000
vt 0.010725 0.190977
vt 0.009538 0.809023
vt 0.010725 0.809023
vt 0.009538 0.190977
vt 0.494331 0.501477
vt 0.492854 0.501477
vt 0.495808 0.501477
vt 0.495808 0.498523
vt 0.494331 0.498523
vt 0.492854 0.498523
vt 0.000000 0.000000
vt 0.500000 1.000000
vt 0.000000 1.000000
vt 0.500000 0.000000
vt 1.000000 1.000000
vt 1.000000 0.000000
s 1
usemtl observation_window_01
f 1/1/1 2/2/1 3/3/1
f 1/1/1 4/4/1 2/2/1
f 5/5/2 6/5/2 7/6/2
f 5/5/2 8/7/2 6/5/2
f 5/5/2 9/7/2 8/7/2
f 9/7/2 10/8/2 8/7/2
f 9/7/2 11/8/2 10/8/2
f 3/9/2 10/8/2 11/8/2
f 3/9/2 12/9/2 10/8/2
f 3/9/2 13/10/2 12/9/2
f 3/9/2 2/10/2 13/10/2
f 2/10/2 7/6/2 13/10/2
f 2/10/2 14/6/2 7/6/2
f 5/5/2 7/6/2 14/6/2
f 15/1/3 9/2/3 5/3/3
f 15/1/3 16/4/3 9/2/3
f 16/1/4 11/2/4 9/3/4
f 16/1/4 17/4/4 11/2/4
f 17/1/1 3/2/1 11/3/1
f 17/1/1 1/4/1 3/2/1
f 18/1/3 5/2/3 14/3/3
f 18/1/3 15/4/3 5/2/3
f 4/1/5 14/2/5 2/3/5
f 4/1/5 18/4/5 14/2/5
f 4/11/6 15/12/6 18/13/6
f 4/11/6 1/14/6 15/12/6
f 1/14/6 16/15/6 15/12/6
f 1/14/6 17/16/6 16/15/6
