# Blender 4.0.2
# www.blender.org
mtllib observation_1x1.mtl
o observation_window_1x1_model
v 0.500343 -0.492187 -0.500000
v -0.499657 -0.492188 0.500000
v 0.500343 -0.492188 0.500000
v -0.499657 -0.492187 -0.500000
v 0.500343 -0.538657 0.500000
v -0.428663 -0.538657 0.433738
v 0.429350 -0.538657 0.433738
v -0.499657 -0.538657 0.500000
v -0.428663 -0.538657 -0.433738
v -0.499657 -0.538657 -0.500000
v 0.429350 -0.538657 -0.433738
v 0.500343 -0.538657 -0.500000
vn -0.0000 1.0000 -0.0000
vn -0.0000 -1.0000 -0.0000
vn 1.0000 -0.0000 -0.0000
vn -0.0000 -0.0000 -1.0000
vn -1.0000 -0.0000 -0.0000
vn -0.0000 -0.0000 1.0000
vt 0.000017 0.000000
vt 0.500017 1.000000
vt 0.000017 1.000000
vt 0.500017 0.000000
vt 0.494331 0.501477
vt 0.495808 0.501477
vt 0.495808 0.498523
vt 0.494331 0.498523
vt 0.010725 0.190977
vt 0.009538 0.809023
vt 0.010725 0.809023
vt 0.009538 0.190977
vt 0.492854 0.498523
vt 0.492854 0.501477
s 1
usemtl observation_window_01
f 1/1/1 2/2/1 3/3/1
f 1/1/1 4/4/1 2/2/1
f 5/5/2 6/6/2 7/5/2
f 5/5/2 8/6/2 6/6/2
f 8/6/2 9/7/2 6/6/2
f 8/6/2 10/7/2 9/7/2
f 10/7/2 11/8/2 9/7/2
f 10/7/2 12/8/2 11/8/2
f 1/9/3 5/10/3 12/11/3
f 1/9/3 3/12/3 5/10/3
f 4/9/4 12/10/4 10/11/4
f 4/9/4 1/12/4 12/10/4
f 2/9/5 10/10/5 8/11/5
f 2/9/5 4/12/5 10/10/5
f 3/9/6 8/10/6 5/11/6
f 3/9/6 2/12/6 8/10/6
f 12/13/2 7/14/2 11/13/2
f 12/13/2 5/14/2 7/14/2
